# xmcd
#
# Track frame offsets: 
#        150
#        19735
#        30167
#        44420
#        57147
#        68160
#        80665
#        103075
#        113912
#        129830
#        149265
#        162067
#        171897
#        181840
#        193085
#        212767
#
# Disc length: 3007 seconds
#
# Revision: 2
# Processed by: cddbd v1.5.2PL0 Copyright (c) Steve Scherf et al.
# Submitted via: ExactAudioCopy v1.0b1
#
DISCID=d40bbd10
DTITLE=John Lee Hooker - The Early Years - Disc 1 of 2
DYEAR=1994
DGENRE=Blues
TTITLE0=You Ain't No Big Thing
TTITLE1=Big Legs Tight Skirts
TTITLE2=My Grinding Mill
TTITLE3=Whiskey and Women
TTITLE4=No Shoes
TTITLE5=I'm So Excited
TTITLE6=1 Bourbon, 1 Scotch, 1 Beer
TTITLE7=Bottle Up and Go
TTITLE8=One Way Ticket
TTITLE9=Half A Stranger
TTITLE10=Lost A Good Girl
TTITLE11=I Wanna Walk
TTITLE12=Dimples
TTITLE13=Let's Make It
TTITLE14=House Rent Boogie
TTITLE15=Baby Lee
EXTD=
EXTT0=
EXTT1=
EXTT2=
EXTT3=
EXTT4=
EXTT5=
EXTT6=
EXTT7=
EXTT8=
EXTT9=
EXTT10=
EXTT11=
EXTT12=
EXTT13=
EXTT14=
EXTT15=
PLAYORDER=
